<mxfile host="Electron" modified="2024-01-04T00:34:22.102Z" agent="Mozilla/5.0 (X11; Linux x86_64) AppleWebKit/537.36 (KHTML, like Gecko) draw.io/22.1.16 Chrome/120.0.6099.109 Electron/28.1.0 Safari/537.36" etag="Rwn3LWVW9NmwZAaJVtuf" version="22.1.16" type="device">
  <diagram name="Server Software Block Diagram" id="fo18u6Ch1KVScq3Fo-Wy">
    <mxGraphModel dx="1906" dy="1202" grid="1" gridSize="10" guides="1" tooltips="1" connect="1" arrows="1" fold="1" page="1" pageScale="1" pageWidth="800" pageHeight="350" background="#999999" math="0" shadow="0">
      <root>
        <object label="" description="Block Diagram of Server Software Stack" rev="1.0" id="0">
          <mxCell />
        </object>
        <object label="Title Block" id="1">
          <mxCell style="locked=1;" parent="0" />
        </object>
        <mxCell id="h7L3MlKvrl_dhOmhB3lf-10" value="Prepared with: draw.io v22.1.16" style="strokeWidth=1;shadow=0;dashed=0;align=center;html=1;shape=mxgraph.mockup.text.textBox;fontColor=#666666;align=left;fontSize=17;spacingLeft=4;spacingTop=-3;whiteSpace=wrap;strokeColor=#333333;mainText=;fillColor=none;fontFamily=Open Sans;movable=1;resizable=1;rotatable=1;deletable=1;editable=1;locked=0;connectable=1;" parent="1" vertex="1">
          <mxGeometry x="220" y="300" width="280" height="30" as="geometry" />
        </mxCell>
        <object label="&lt;div align=&quot;left&quot;&gt;Sheet %pagenumber%/%pagecount%&lt;/div&gt;" placeholders="1" id="h7L3MlKvrl_dhOmhB3lf-12">
          <mxCell style="strokeWidth=1;shadow=0;dashed=0;align=left;html=1;shape=mxgraph.mockup.text.textBox;fontColor=#666666;align=left;fontSize=17;spacingLeft=4;spacingTop=-3;whiteSpace=wrap;strokeColor=#333333;mainText=;fillColor=none;fontFamily=Open Sans;movable=1;resizable=1;rotatable=1;deletable=1;editable=1;locked=0;connectable=1;" parent="1" vertex="1">
            <mxGeometry x="60" y="300" width="160" height="30" as="geometry" />
          </mxCell>
        </object>
        <object label="Date: &lt;font style=&quot;font-size: 17px;&quot;&gt;%date{ddd mmm dd yyyy HH:MM:ss}%&lt;/font&gt;" placeholders="1" id="h7L3MlKvrl_dhOmhB3lf-13">
          <mxCell style="strokeWidth=1;shadow=0;dashed=0;align=center;html=1;shape=mxgraph.mockup.text.textBox;fontColor=#666666;align=left;fontSize=17;spacingLeft=4;spacingTop=-3;whiteSpace=wrap;strokeColor=#333333;mainText=;fillColor=none;fontFamily=Open Sans;movable=1;resizable=1;rotatable=1;deletable=1;editable=1;locked=0;connectable=1;" parent="1" vertex="1">
            <mxGeometry x="500" y="300" width="280" height="30" as="geometry" />
          </mxCell>
        </object>
        <object label="&lt;b&gt;Title: %page%&lt;/b&gt;" placeholders="1" id="h7L3MlKvrl_dhOmhB3lf-14">
          <mxCell style="strokeWidth=1;shadow=0;dashed=0;align=center;html=1;shape=mxgraph.mockup.text.textBox;fontColor=#666666;align=left;fontSize=17;spacingLeft=4;spacingTop=-3;whiteSpace=wrap;strokeColor=#333333;mainText=;fillColor=none;fontFamily=Open Sans;movable=1;resizable=1;rotatable=1;deletable=1;editable=1;locked=0;connectable=1;" parent="1" vertex="1">
            <mxGeometry x="60" y="240" width="720" height="30" as="geometry" />
          </mxCell>
        </object>
        <object label="Filename: %filename%" placeholders="1" id="h7L3MlKvrl_dhOmhB3lf-15">
          <mxCell style="strokeWidth=1;shadow=0;dashed=0;align=center;html=1;shape=mxgraph.mockup.text.textBox;fontColor=#666666;align=left;fontSize=17;spacingLeft=4;spacingTop=-3;whiteSpace=wrap;strokeColor=#333333;mainText=;fillColor=none;fontFamily=Open Sans;movable=1;resizable=1;rotatable=1;deletable=1;editable=1;locked=0;connectable=1;" parent="1" vertex="1">
            <mxGeometry x="60" y="270" width="480" height="30" as="geometry" />
          </mxCell>
        </object>
        <object label="&lt;div align=&quot;left&quot;&gt;%description%&lt;/div&gt;" placeholders="1" id="h7L3MlKvrl_dhOmhB3lf-16">
          <mxCell style="strokeWidth=1;shadow=0;dashed=0;html=1;shape=mxgraph.mockup.text.textBox;fontColor=#666666;align=left;verticalAlign=top;fontSize=12;spacingLeft=4;spacingTop=-3;whiteSpace=wrap;strokeColor=#333333;mainText=;fillColor=none;fontFamily=Open Sans;movable=1;resizable=1;rotatable=1;deletable=1;editable=1;locked=0;connectable=1;" parent="1" vertex="1">
            <mxGeometry x="60" y="200" width="720" height="40" as="geometry" />
          </mxCell>
        </object>
        <object label="&lt;b&gt;Rev: %rev%&lt;br&gt;&lt;/b&gt;" placeholders="1" id="EyKvBmyPNv_MzgSUc5b6-1">
          <mxCell style="strokeWidth=1;shadow=0;dashed=0;align=center;html=1;shape=mxgraph.mockup.text.textBox;fontColor=#666666;align=left;fontSize=17;spacingLeft=4;spacingTop=-3;whiteSpace=wrap;strokeColor=#333333;mainText=;fillColor=none;fontFamily=Open Sans;movable=1;resizable=1;rotatable=1;deletable=1;editable=1;locked=0;connectable=1;" parent="1" vertex="1">
            <mxGeometry x="540" y="270" width="240" height="30" as="geometry" />
          </mxCell>
        </object>
        <object label="Drawing Frame" id="2jkEU8j2_UPUL1MGRyPS-1">
          <mxCell style="locked=1;" parent="0" />
        </object>
        <mxCell id="2jkEU8j2_UPUL1MGRyPS-2" value="" style="rounded=0;whiteSpace=wrap;html=1;fillColor=none;strokeWidth=3;movable=1;resizable=1;rotatable=1;deletable=1;editable=1;locked=0;connectable=1;" parent="2jkEU8j2_UPUL1MGRyPS-1" vertex="1">
          <mxGeometry x="-110" y="-320" width="890" height="650" as="geometry" />
        </mxCell>
        <object label="Document" id="NbdiYjX3MhI7OpqD2NvG-1">
          <mxCell parent="0" />
        </object>
        <mxCell id="Sss9bJefdTC3gDfBGX2G-5" value="POSIX" style="swimlane;horizontal=0;whiteSpace=wrap;html=1;fontFamily=Open Sans;fillColor=#f5f5f5;strokeColor=#666666;fontColor=#333333;" parent="NbdiYjX3MhI7OpqD2NvG-1" vertex="1">
          <mxGeometry x="-80" width="680" height="80" as="geometry">
            <mxRectangle x="-260" width="40" height="140" as="alternateBounds" />
          </mxGeometry>
        </mxCell>
        <mxCell id="Sss9bJefdTC3gDfBGX2G-15" value="Std IO" style="rounded=1;whiteSpace=wrap;html=1;fontFamily=Open Sans;fillColor=#f5f5f5;strokeColor=#666666;fontColor=#333333;" parent="Sss9bJefdTC3gDfBGX2G-5" vertex="1">
          <mxGeometry x="30" y="10" width="120" height="60" as="geometry" />
        </mxCell>
        <mxCell id="XVaCZBAozk8oMo-m2AnW-5" value="Sockets" style="rounded=1;whiteSpace=wrap;html=1;fontFamily=Open Sans;fillColor=#f5f5f5;strokeColor=#666666;fontColor=#333333;" parent="Sss9bJefdTC3gDfBGX2G-5" vertex="1">
          <mxGeometry x="160" y="10" width="120" height="60" as="geometry" />
        </mxCell>
        <mxCell id="XVaCZBAozk8oMo-m2AnW-6" value="Threads" style="rounded=1;whiteSpace=wrap;html=1;fontFamily=Open Sans;fillColor=#f5f5f5;strokeColor=#666666;fontColor=#333333;" parent="Sss9bJefdTC3gDfBGX2G-5" vertex="1">
          <mxGeometry x="420" y="10" width="120" height="60" as="geometry" />
        </mxCell>
        <mxCell id="XVaCZBAozk8oMo-m2AnW-26" value="Dynamic Linker" style="rounded=1;whiteSpace=wrap;html=1;fontFamily=Open Sans;fillColor=#f5f5f5;strokeColor=#666666;fontColor=#333333;" parent="Sss9bJefdTC3gDfBGX2G-5" vertex="1">
          <mxGeometry x="550" y="10" width="120" height="60" as="geometry" />
        </mxCell>
        <mxCell id="XVaCZBAozk8oMo-m2AnW-28" value="Signals" style="rounded=1;whiteSpace=wrap;html=1;fontFamily=Open Sans;fillColor=#f5f5f5;strokeColor=#666666;fontColor=#333333;" parent="Sss9bJefdTC3gDfBGX2G-5" vertex="1">
          <mxGeometry x="290" y="10" width="120" height="60" as="geometry" />
        </mxCell>
        <mxCell id="lVKpyNV5w2mlOseutN5l-1" value="Kernel" style="swimlane;horizontal=0;whiteSpace=wrap;html=1;fontFamily=Open Sans;fillColor=#f5f5f5;fontColor=#333333;strokeColor=#666666;" parent="NbdiYjX3MhI7OpqD2NvG-1" vertex="1">
          <mxGeometry x="-80" y="90" width="680" height="80" as="geometry" />
        </mxCell>
        <mxCell id="lVKpyNV5w2mlOseutN5l-2" value="VFS" style="rounded=1;whiteSpace=wrap;html=1;fontFamily=Open Sans;fillColor=#f5f5f5;strokeColor=#666666;fontColor=#333333;" parent="lVKpyNV5w2mlOseutN5l-1" vertex="1">
          <mxGeometry x="30" y="10" width="120" height="60" as="geometry" />
        </mxCell>
        <mxCell id="XVaCZBAozk8oMo-m2AnW-4" value="TCP/IP" style="rounded=1;whiteSpace=wrap;html=1;fontFamily=Open Sans;fillColor=#f5f5f5;strokeColor=#666666;fontColor=#333333;" parent="lVKpyNV5w2mlOseutN5l-1" vertex="1">
          <mxGeometry x="160" y="10" width="120" height="60" as="geometry" />
        </mxCell>
        <mxCell id="XVaCZBAozk8oMo-m2AnW-29" value="VM" style="rounded=1;whiteSpace=wrap;html=1;fontFamily=Open Sans;fillColor=#f5f5f5;strokeColor=#666666;fontColor=#333333;" parent="lVKpyNV5w2mlOseutN5l-1" vertex="1">
          <mxGeometry x="550" y="10" width="120" height="60" as="geometry" />
        </mxCell>
        <mxCell id="lVKpyNV5w2mlOseutN5l-12" value="Application" style="swimlane;horizontal=0;whiteSpace=wrap;html=1;fontFamily=Open Sans;fillColor=#f5f5f5;fontColor=#333333;strokeColor=#666666;" parent="NbdiYjX3MhI7OpqD2NvG-1" vertex="1">
          <mxGeometry x="-80" y="-290" width="680" height="100" as="geometry">
            <mxRectangle x="-290" y="-340" width="40" height="100" as="alternateBounds" />
          </mxGeometry>
        </mxCell>
        <mxCell id="lVKpyNV5w2mlOseutN5l-13" value="Go Modules&amp;nbsp;" style="rounded=1;whiteSpace=wrap;html=1;fontFamily=Open Sans;fillColor=#ffe6cc;strokeColor=#d79b00;verticalAlign=bottom;align=right;" parent="lVKpyNV5w2mlOseutN5l-12" vertex="1">
          <mxGeometry x="310" y="30" width="120" height="60" as="geometry" />
        </mxCell>
        <mxCell id="lVKpyNV5w2mlOseutN5l-14" value="Go Modules&amp;nbsp;" style="rounded=1;whiteSpace=wrap;html=1;fontFamily=Open Sans;fillColor=#dae8fc;strokeColor=#6c8ebf;align=right;verticalAlign=bottom;" parent="lVKpyNV5w2mlOseutN5l-12" vertex="1">
          <mxGeometry x="50" y="30" width="120" height="60" as="geometry" />
        </mxCell>
        <mxCell id="XVaCZBAozk8oMo-m2AnW-7" value="Node Modules&amp;nbsp;" style="rounded=1;whiteSpace=wrap;html=1;fontFamily=Open Sans;fillColor=#f8cecc;strokeColor=#b85450;align=right;verticalAlign=bottom;" parent="lVKpyNV5w2mlOseutN5l-12" vertex="1">
          <mxGeometry x="550" y="30" width="120" height="60" as="geometry" />
        </mxCell>
        <mxCell id="XVaCZBAozk8oMo-m2AnW-30" value="Grafana" style="rounded=1;whiteSpace=wrap;html=1;fontFamily=Open Sans;fillColor=#ffe6cc;strokeColor=#d79b00;" parent="lVKpyNV5w2mlOseutN5l-12" vertex="1">
          <mxGeometry x="290" y="10" width="120" height="60" as="geometry" />
        </mxCell>
        <mxCell id="XVaCZBAozk8oMo-m2AnW-33" value="InfluxDB" style="rounded=1;whiteSpace=wrap;html=1;fontFamily=Open Sans;fillColor=#dae8fc;strokeColor=#6c8ebf;" parent="lVKpyNV5w2mlOseutN5l-12" vertex="1">
          <mxGeometry x="30" y="10" width="120" height="60" as="geometry" />
        </mxCell>
        <mxCell id="XVaCZBAozk8oMo-m2AnW-35" value="Node-RED" style="rounded=1;whiteSpace=wrap;html=1;fontFamily=Open Sans;fillColor=#f8cecc;strokeColor=#b85450;" parent="lVKpyNV5w2mlOseutN5l-12" vertex="1">
          <mxGeometry x="530" y="10" width="120" height="60" as="geometry" />
        </mxCell>
        <mxCell id="XVaCZBAozk8oMo-m2AnW-1" value="Middleware" style="swimlane;horizontal=0;whiteSpace=wrap;html=1;fontFamily=Open Sans;fillColor=#f5f5f5;fontColor=#333333;strokeColor=#666666;" parent="NbdiYjX3MhI7OpqD2NvG-1" vertex="1">
          <mxGeometry x="-80" y="-180" width="680" height="80" as="geometry">
            <mxRectangle x="-290" y="-340" width="40" height="100" as="alternateBounds" />
          </mxGeometry>
        </mxCell>
        <mxCell id="XVaCZBAozk8oMo-m2AnW-2" value="Systemd" style="rounded=1;whiteSpace=wrap;html=1;fontFamily=Open Sans;fillColor=#e1d5e7;strokeColor=#9673a6;" parent="XVaCZBAozk8oMo-m2AnW-1" vertex="1">
          <mxGeometry x="30" y="10" width="120" height="60" as="geometry" />
        </mxCell>
        <mxCell id="XVaCZBAozk8oMo-m2AnW-17" value="sh" style="rounded=1;whiteSpace=wrap;html=1;fontFamily=Open Sans;fillColor=#f5f5f5;strokeColor=#666666;fontColor=#333333;" parent="XVaCZBAozk8oMo-m2AnW-1" vertex="1">
          <mxGeometry x="160" y="10" width="120" height="60" as="geometry" />
        </mxCell>
        <mxCell id="XVaCZBAozk8oMo-m2AnW-34" value="Node.js" style="rounded=1;whiteSpace=wrap;html=1;fontFamily=Open Sans;fillColor=#f8cecc;strokeColor=#b85450;" parent="XVaCZBAozk8oMo-m2AnW-1" vertex="1">
          <mxGeometry x="550" y="10" width="120" height="60" as="geometry" />
        </mxCell>
        <mxCell id="XVaCZBAozk8oMo-m2AnW-9" value="Configuration" style="swimlane;whiteSpace=wrap;html=1;fontFamily=Open Sans;fillColor=#f5f5f5;fontColor=#333333;strokeColor=#666666;" parent="NbdiYjX3MhI7OpqD2NvG-1" vertex="1">
          <mxGeometry x="610" y="-290" width="140" height="320" as="geometry">
            <mxRectangle x="300" y="-210" width="140" height="30" as="alternateBounds" />
          </mxGeometry>
        </mxCell>
        <mxCell id="XVaCZBAozk8oMo-m2AnW-10" value="Node-RED Flows JS" style="rounded=1;whiteSpace=wrap;html=1;fontFamily=Open Sans;fillColor=#f8cecc;strokeColor=#b85450;" parent="XVaCZBAozk8oMo-m2AnW-9" vertex="1">
          <mxGeometry x="10" y="100" width="120" height="60" as="geometry" />
        </mxCell>
        <mxCell id="XVaCZBAozk8oMo-m2AnW-13" value="Grafana DB" style="rounded=1;whiteSpace=wrap;html=1;fontFamily=Open Sans;fillColor=#ffe6cc;strokeColor=#d79b00;" parent="XVaCZBAozk8oMo-m2AnW-9" vertex="1">
          <mxGeometry x="10" y="30" width="120" height="60" as="geometry" />
        </mxCell>
        <mxCell id="XVaCZBAozk8oMo-m2AnW-14" value="Systemd Services / Timers&lt;br&gt;(Node-RED SOH Monitor)" style="rounded=1;whiteSpace=wrap;html=1;fontFamily=Open Sans;fillColor=#e1d5e7;strokeColor=#9673a6;" parent="XVaCZBAozk8oMo-m2AnW-9" vertex="1">
          <mxGeometry x="10" y="240" width="120" height="70" as="geometry" />
        </mxCell>
        <mxCell id="XVaCZBAozk8oMo-m2AnW-36" value=".ini files" style="rounded=1;whiteSpace=wrap;html=1;fontFamily=Open Sans;fillColor=#f5f5f5;strokeColor=#666666;fontColor=#333333;" parent="XVaCZBAozk8oMo-m2AnW-9" vertex="1">
          <mxGeometry x="10" y="170" width="120" height="60" as="geometry" />
        </mxCell>
        <mxCell id="XVaCZBAozk8oMo-m2AnW-18" value="Package Deps" style="swimlane;horizontal=0;whiteSpace=wrap;html=1;fontFamily=Open Sans;fillColor=#f5f5f5;fontColor=#333333;strokeColor=#666666;startSize=30;" parent="NbdiYjX3MhI7OpqD2NvG-1" vertex="1">
          <mxGeometry x="-80" y="-90" width="680" height="80" as="geometry">
            <mxRectangle x="-290" y="-340" width="40" height="100" as="alternateBounds" />
          </mxGeometry>
        </mxCell>
        <mxCell id="XVaCZBAozk8oMo-m2AnW-21" value="URW Fonts" style="rounded=1;whiteSpace=wrap;html=1;fontFamily=Open Sans;fillColor=#ffe6cc;strokeColor=#d79b00;" parent="XVaCZBAozk8oMo-m2AnW-18" vertex="1">
          <mxGeometry x="420" y="10" width="120" height="60" as="geometry" />
        </mxCell>
        <mxCell id="XVaCZBAozk8oMo-m2AnW-24" value="Fontconfig" style="rounded=1;whiteSpace=wrap;html=1;fontFamily=Open Sans;fillColor=#ffe6cc;strokeColor=#d79b00;" parent="XVaCZBAozk8oMo-m2AnW-18" vertex="1">
          <mxGeometry x="160" y="10" width="120" height="60" as="geometry" />
        </mxCell>
        <mxCell id="XVaCZBAozk8oMo-m2AnW-25" value="libfreetype" style="rounded=1;whiteSpace=wrap;html=1;fontFamily=Open Sans;fillColor=#ffe6cc;strokeColor=#d79b00;" parent="XVaCZBAozk8oMo-m2AnW-18" vertex="1">
          <mxGeometry x="290" y="10" width="120" height="60" as="geometry" />
        </mxCell>
        <mxCell id="XVaCZBAozk8oMo-m2AnW-27" value="mysql / postgres / sqlite3" style="rounded=1;whiteSpace=wrap;html=1;fontFamily=Open Sans;fillColor=#ffe6cc;strokeColor=#d79b00;" parent="XVaCZBAozk8oMo-m2AnW-18" vertex="1">
          <mxGeometry x="550" y="10" width="120" height="60" as="geometry" />
        </mxCell>
        <mxCell id="XVaCZBAozk8oMo-m2AnW-37" value="Storage" style="swimlane;whiteSpace=wrap;html=1;fontFamily=Open Sans;fillColor=#f5f5f5;fontColor=#333333;strokeColor=#666666;" parent="NbdiYjX3MhI7OpqD2NvG-1" vertex="1">
          <mxGeometry x="610" y="40" width="140" height="130" as="geometry">
            <mxRectangle x="300" y="-210" width="140" height="30" as="alternateBounds" />
          </mxGeometry>
        </mxCell>
        <mxCell id="XVaCZBAozk8oMo-m2AnW-39" value="Influx DB" style="rounded=1;whiteSpace=wrap;html=1;fontFamily=Open Sans;fillColor=#dae8fc;strokeColor=#6c8ebf;" parent="XVaCZBAozk8oMo-m2AnW-37" vertex="1">
          <mxGeometry x="10" y="30" width="120" height="60" as="geometry" />
        </mxCell>
      </root>
    </mxGraphModel>
  </diagram>
</mxfile>
